<svg width="211" height="22" viewBox="0 0 211 22" fill="none" xmlns="http://www.w3.org/2000/svg">
<g clip-path="url(#clip0_1_14941)">
<path d="M17.8408 7.12936C18.724 7.72471 19.5949 8.35051 20.5079 8.91078C21.0155 9.2223 21.0694 9.50566 20.7568 9.98793C20.481 10.4125 20.3461 10.634 19.7737 10.2413C17.9841 9.01969 16.1865 7.80824 14.4371 6.5331C13.5094 5.85745 12.568 5.73931 11.602 6.37757C9.74856 7.60241 7.90929 8.84709 6.06717 10.0858C5.73225 10.3105 5.34717 10.4647 5.07374 10.7743C4.89019 10.9806 4.80504 10.9013 4.66218 10.6867C3.79363 9.38336 3.78653 9.39167 5.08273 8.51296C5.78381 8.03807 6.47685 7.55164 7.19874 7.05322C7.1117 6.97522 7.05351 6.88892 6.97309 6.85754C6.54308 6.69001 6.33824 6.44726 6.34013 5.93914C6.34203 5.43102 6.55632 5.20073 6.96647 4.98659C10.101 3.36624 13.332 3.20425 16.651 4.35802C17.0522 4.49647 17.4344 4.688 17.8223 4.86106C18.4023 5.12274 18.6308 5.5284 18.5977 6.18882C18.5703 6.74078 18.0139 6.73801 17.8408 7.12936Z" fill="black"/>
<path d="M15.3605 12.5581C15.4078 13.902 16.0077 14.8403 17.2414 15.3442C17.4576 15.4324 17.4482 15.5164 17.3531 15.6742C16.853 16.5003 16.3469 17.3227 15.8648 18.1585C15.7446 18.3666 15.5937 18.3892 15.388 18.3892C13.4749 18.3855 11.5618 18.3892 9.64875 18.3855C9.3791 18.3855 8.69269 17.6222 8.71539 17.3605C8.72296 17.2738 8.78635 17.2401 8.86299 17.2101C10.5589 16.5437 11.7903 15.2385 13.2152 14.1974C13.9248 13.6768 14.6178 13.1285 15.3605 12.5581Z" fill="black"/>
<path d="M11.5187 14.4779C11.8228 12.2945 10.8057 10.3303 8.09131 9.74606C8.53315 9.44054 8.93336 9.15948 9.33783 8.88535C9.75082 8.60567 10.169 8.33154 10.6454 8.01587C10.7074 8.77412 10.95 9.40823 11.5546 9.85682C11.9875 10.1799 12.4903 10.3396 13.0211 10.3026C14.0543 10.2311 14.9876 9.60714 15.1901 8.1054L17.7446 9.86328C16.2285 10.2934 15.4739 11.5801 14.3022 12.3379C13.3508 12.9508 12.5022 13.7122 11.5187 14.4779Z" fill="black"/>
<path d="M18.3101 10.657C18.8686 10.6566 19.4045 10.8717 19.801 11.2553C20.1975 11.6389 20.4224 12.1599 20.4266 12.7047C20.4304 13.7758 19.4517 14.7445 18.3513 14.7579C17.1999 14.7727 16.2273 13.8446 16.2164 12.7222C16.2143 12.4523 16.2668 12.1847 16.371 11.9347C16.4752 11.6847 16.6289 11.4572 16.8235 11.2653C17.018 11.0734 17.2495 10.9209 17.5046 10.8165C17.7598 10.7121 18.0335 10.6579 18.3101 10.657Z" fill="black"/>
<path d="M11.5191 8.11548C11.5216 7.76047 11.6675 7.42077 11.9253 7.17017C12.1831 6.91957 12.5318 6.77832 12.8957 6.77711C13.689 6.77388 14.3243 7.38122 14.3177 8.13717C14.3111 8.88389 13.6436 9.51108 12.8744 9.49261C12.1265 9.47277 11.5153 8.85251 11.5191 8.11548Z" fill="#010101"/>
<path d="M10.7284 13.4967C10.6172 11.7711 9.21456 10.478 7.57113 10.5892C5.8208 10.7083 4.51845 12.1094 4.61543 13.7736C4.71005 15.3745 6.23662 16.7152 7.82517 16.5888C9.53908 16.4535 10.8301 15.0787 10.7284 13.4967ZM7.82281 15.4479C6.74611 15.4678 5.84303 14.5711 5.85013 13.4953C5.85675 12.5012 6.72482 11.6853 7.77597 11.6853C8.03307 11.6847 8.28768 11.7344 8.5247 11.8316C8.76172 11.9288 8.97632 12.0714 9.15579 12.251C9.33526 12.4306 9.47594 12.6436 9.56949 12.8772C9.66304 13.1108 9.70755 13.3604 9.7004 13.6111C9.68384 14.5498 8.7836 15.4304 7.82281 15.4479Z" fill="black"/>
<path d="M8.83711 13.5304C8.84092 13.669 8.81634 13.807 8.76482 13.9362C8.71331 14.0654 8.63589 14.1833 8.53709 14.283C8.4383 14.3827 8.32011 14.4621 8.18946 14.5167C8.0588 14.5713 7.9183 14.5999 7.77618 14.6008C7.63406 14.6018 7.49317 14.5751 7.36176 14.5223C7.23035 14.4694 7.11106 14.3916 7.01087 14.2932C6.91068 14.1949 6.83161 14.078 6.77828 13.9495C6.72495 13.821 6.69843 13.6834 6.70029 13.5447C6.70312 13.0099 7.18092 12.5294 7.73251 12.504C8.29357 12.4796 8.82482 12.9725 8.83711 13.5304Z" fill="#010101"/>
</g>
<mask id="path-8-outside-1_1_14941" maskUnits="userSpaceOnUse" x="30" y="7" width="29" height="7" fill="black">
<rect fill="white" x="30" y="7" width="29" height="7"/>
<path d="M32.136 9.4C32.344 9.384 32.5547 9.376 32.768 9.376H32.984H33.952C34.608 9.376 35.152 9.44267 35.584 9.576C36.0213 9.70933 36.256 9.92533 36.288 10.224C36.3253 10.5227 36.3467 10.7333 36.352 10.856C36.3573 10.9733 36.36 11.104 36.36 11.248C36.36 11.904 36.2427 12.368 36.008 12.64C35.7787 12.9067 35.336 13.04 34.68 13.04L33.84 13.064L32.128 13.024C31.52 13.024 31.0747 12.928 30.792 12.736C30.5093 12.544 30.368 12.1547 30.368 11.568L30.376 11.384H30.992C30.992 11.752 31.0587 12.0133 31.192 12.168C31.3253 12.3227 31.5733 12.416 31.936 12.448L33.336 12.496L34.72 12.456C35.0933 12.456 35.3493 12.3733 35.488 12.208C35.632 12.0427 35.704 11.784 35.704 11.432C35.704 10.8187 35.6427 10.424 35.52 10.248C35.3973 10.072 35.0373 9.984 34.44 9.984L32.456 9.944C32.0613 9.944 31.7573 9.968 31.544 10.016C31.3307 10.0587 31.1893 10.2 31.12 10.44H30.464L30.536 7.664H36.192V8.216H31.12L31.08 10C31.192 9.80267 31.3333 9.65867 31.504 9.568C31.6747 9.47733 31.8853 9.42133 32.136 9.4ZM39.5908 13H38.7908V12.128H39.5908V13ZM41.9504 7.664H47.9664V8.448L43.9904 13H43.1264L47.3344 8.216H41.9504V7.664ZM57.9011 13H53.0371V7.664H53.6851V12.464H57.9011V13Z"/>
</mask>
<path d="M32.136 9.4C32.344 9.384 32.5547 9.376 32.768 9.376H32.984H33.952C34.608 9.376 35.152 9.44267 35.584 9.576C36.0213 9.70933 36.256 9.92533 36.288 10.224C36.3253 10.5227 36.3467 10.7333 36.352 10.856C36.3573 10.9733 36.36 11.104 36.36 11.248C36.36 11.904 36.2427 12.368 36.008 12.64C35.7787 12.9067 35.336 13.04 34.68 13.04L33.84 13.064L32.128 13.024C31.52 13.024 31.0747 12.928 30.792 12.736C30.5093 12.544 30.368 12.1547 30.368 11.568L30.376 11.384H30.992C30.992 11.752 31.0587 12.0133 31.192 12.168C31.3253 12.3227 31.5733 12.416 31.936 12.448L33.336 12.496L34.72 12.456C35.0933 12.456 35.3493 12.3733 35.488 12.208C35.632 12.0427 35.704 11.784 35.704 11.432C35.704 10.8187 35.6427 10.424 35.52 10.248C35.3973 10.072 35.0373 9.984 34.44 9.984L32.456 9.944C32.0613 9.944 31.7573 9.968 31.544 10.016C31.3307 10.0587 31.1893 10.2 31.12 10.44H30.464L30.536 7.664H36.192V8.216H31.12L31.08 10C31.192 9.80267 31.3333 9.65867 31.504 9.568C31.6747 9.47733 31.8853 9.42133 32.136 9.4ZM39.5908 13H38.7908V12.128H39.5908V13ZM41.9504 7.664H47.9664V8.448L43.9904 13H43.1264L47.3344 8.216H41.9504V7.664ZM57.9011 13H53.0371V7.664H53.6851V12.464H57.9011V13Z" fill="black"/>
<path d="M32.136 9.4L32.1207 9.20058L32.119 9.20072L32.136 9.4ZM35.584 9.576L35.525 9.76711L35.5257 9.76731L35.584 9.576ZM36.288 10.224L36.0891 10.2453L36.0895 10.2488L36.288 10.224ZM36.352 10.856L36.1522 10.8647L36.1522 10.8651L36.352 10.856ZM36.008 12.64L35.8566 12.5094L35.8564 12.5096L36.008 12.64ZM34.68 13.04V12.8399L34.6743 12.8401L34.68 13.04ZM33.84 13.064L33.8353 13.2642L33.8457 13.2639L33.84 13.064ZM32.128 13.024L32.1327 12.824H32.128V13.024ZM30.792 12.736L30.6796 12.9014V12.9014L30.792 12.736ZM30.368 11.568L30.168 11.5593V11.568H30.368ZM30.376 11.384V11.184H30.1845L30.1762 11.3753L30.376 11.384ZM30.992 11.384H31.192V11.184H30.992V11.384ZM31.192 12.168L31.0405 12.2986V12.2986L31.192 12.168ZM31.936 12.448L31.9184 12.6475L31.9291 12.6479L31.936 12.448ZM33.336 12.496L33.3291 12.6963L33.3418 12.6959L33.336 12.496ZM34.72 12.456V12.2559L34.7142 12.2561L34.72 12.456ZM35.488 12.208L35.3372 12.0766L35.3348 12.0795L35.488 12.208ZM34.44 9.984L34.436 10.184H34.44V9.984ZM32.456 9.944L32.46 9.744H32.456V9.944ZM31.544 10.016L31.5832 10.2122L31.5879 10.2111L31.544 10.016ZM31.12 10.44V10.64H31.2704L31.3121 10.4955L31.12 10.44ZM30.464 10.44L30.2641 10.4348L30.2587 10.64H30.464V10.44ZM30.536 7.664V7.464H30.3411L30.3361 7.65881L30.536 7.664ZM36.192 7.664H36.392V7.464H36.192V7.664ZM36.192 8.216V8.416H36.392V8.216H36.192ZM31.12 8.216V8.016H30.9244L30.9201 8.21152L31.12 8.216ZM31.08 10L30.8801 9.99552L31.2539 10.0987L31.08 10ZM32.1513 9.59941C32.3541 9.58381 32.5597 9.576 32.768 9.576V9.176C32.5497 9.176 32.3339 9.18419 32.1207 9.20059L32.1513 9.59941ZM32.768 9.576H32.984V9.176H32.768V9.576ZM32.984 9.576H33.952V9.176H32.984V9.576ZM33.952 9.576C34.5962 9.576 35.1186 9.64167 35.525 9.7671L35.643 9.3849C35.1854 9.24366 34.6198 9.176 33.952 9.176V9.576ZM35.5257 9.76731C35.932 9.8912 36.0698 10.065 36.0891 10.2453L36.4869 10.2027C36.4422 9.78566 36.1106 9.52747 35.6423 9.38469L35.5257 9.76731ZM36.0895 10.2488C36.1269 10.5476 36.1472 10.751 36.1522 10.8647L36.5518 10.8473C36.5461 10.7157 36.5238 10.4978 36.4865 10.1992L36.0895 10.2488ZM36.1522 10.8651C36.1574 10.9788 36.16 11.1064 36.16 11.248H36.56C36.56 11.1016 36.5573 10.9679 36.5518 10.8469L36.1522 10.8651ZM36.16 11.248C36.16 11.8912 36.0428 12.2935 35.8566 12.5094L36.1594 12.7706C36.4426 12.4425 36.56 11.9168 36.56 11.248H36.16ZM35.8564 12.5096C35.6873 12.7061 35.3241 12.84 34.68 12.84V13.24C35.3479 13.24 35.87 13.1072 36.1596 12.7704L35.8564 12.5096ZM34.6743 12.8401L33.8343 12.8641L33.8457 13.2639L34.6857 13.2399L34.6743 12.8401ZM33.8447 12.8641L32.1327 12.8241L32.1233 13.2239L33.8353 13.2639L33.8447 12.8641ZM32.128 12.824C31.5328 12.824 31.1368 12.7285 30.9044 12.5706L30.6796 12.9014C31.0125 13.1275 31.5072 13.224 32.128 13.224V12.824ZM30.9044 12.5706C30.7065 12.4362 30.568 12.1357 30.568 11.568H30.168C30.168 12.1737 30.3121 12.6518 30.6796 12.9014L30.9044 12.5706ZM30.5678 11.5767L30.5758 11.3927L30.1762 11.3753L30.1682 11.5593L30.5678 11.5767ZM30.376 11.584H30.992V11.184H30.376V11.584ZM30.792 11.384C30.792 11.7656 30.859 12.0881 31.0405 12.2986L31.3435 12.0374C31.2583 11.9386 31.192 11.7384 31.192 11.384H30.792ZM31.0405 12.2986C31.2262 12.514 31.541 12.6139 31.9184 12.6472L31.9536 12.2488C31.6057 12.2181 31.4245 12.1314 31.3435 12.0374L31.0405 12.2986ZM31.9291 12.6479L33.3291 12.6959L33.3429 12.2961L31.9429 12.2481L31.9291 12.6479ZM33.3418 12.6959L34.7258 12.6559L34.7142 12.2561L33.3302 12.2961L33.3418 12.6959ZM34.72 12.656C35.1112 12.656 35.4443 12.5714 35.6412 12.3365L35.3348 12.0795C35.2544 12.1753 35.0755 12.256 34.72 12.256V12.656ZM35.6388 12.3394C35.8289 12.1212 35.904 11.8047 35.904 11.432H35.504C35.504 11.7633 35.4351 11.9642 35.3372 12.0766L35.6388 12.3394ZM35.904 11.432C35.904 11.1199 35.8885 10.8566 35.8556 10.6453C35.8236 10.4395 35.7721 10.2599 35.6841 10.1336L35.3559 10.3624C35.3906 10.4121 35.431 10.5178 35.4604 10.7067C35.4889 10.89 35.504 11.1308 35.504 11.432H35.904ZM35.6841 10.1336C35.5807 9.98537 35.4013 9.90359 35.2055 9.85572C35.0034 9.80633 34.7462 9.784 34.44 9.784V10.184C34.7311 10.184 34.9526 10.2057 35.1105 10.2443C35.2747 10.2844 35.3366 10.3346 35.3559 10.3624L35.6841 10.1336ZM34.444 9.78404L32.46 9.74404L32.452 10.144L34.436 10.184L34.444 9.78404ZM32.456 9.744C32.0563 9.744 31.735 9.76803 31.5001 9.82088L31.5879 10.2111C31.7797 10.168 32.0663 10.144 32.456 10.144V9.744ZM31.5048 9.81988C31.363 9.84825 31.2376 9.91152 31.1366 10.0126C31.0368 10.1124 30.9696 10.24 30.9279 10.3845L31.3121 10.4955C31.3397 10.4 31.3779 10.3369 31.4194 10.2954C31.4597 10.2551 31.5117 10.2264 31.5832 10.2121L31.5048 9.81988ZM31.12 10.24H30.464V10.64H31.12V10.24ZM30.6639 10.4452L30.7359 7.66919L30.3361 7.65881L30.2641 10.4348L30.6639 10.4452ZM30.536 7.864H36.192V7.464H30.536V7.864ZM35.992 7.664V8.216H36.392V7.664H35.992ZM36.192 8.016H31.12V8.416H36.192V8.016ZM30.9201 8.21152L30.8801 9.99552L31.2799 10.0045L31.3199 8.22048L30.9201 8.21152ZM31.2539 10.0987C31.3505 9.92859 31.4662 9.81455 31.5978 9.74462L31.4102 9.39138C31.2005 9.50279 31.0335 9.67675 30.9061 9.90128L31.2539 10.0987ZM31.5978 9.74462C31.7386 9.66982 31.9214 9.61898 32.153 9.59928L32.119 9.20072C31.8492 9.22368 31.6107 9.28485 31.4102 9.39138L31.5978 9.74462ZM39.5907 13V13.2H39.7908V13H39.5907ZM38.7908 13H38.5907V13.2H38.7908V13ZM38.7908 12.128V11.928H38.5907V12.128H38.7908ZM39.5907 12.128H39.7908V11.928H39.5907V12.128ZM39.5907 12.8H38.7908V13.2H39.5907V12.8ZM38.9908 13V12.128H38.5907V13H38.9908ZM38.7908 12.328H39.5907V11.928H38.7908V12.328ZM39.3907 12.128V13H39.7908V12.128H39.3907ZM41.9504 7.664V7.464H41.7504V7.664H41.9504ZM47.9664 7.664H48.1664V7.464H47.9664V7.664ZM47.9664 8.448L48.117 8.57957L48.1664 8.52305V8.448H47.9664ZM43.9904 13V13.2H44.0812L44.141 13.1316L43.9904 13ZM43.1264 13L42.9762 12.8679L42.6841 13.2H43.1264V13ZM47.3344 8.216L47.4845 8.34809L47.7767 8.016H47.3344V8.216ZM41.9504 8.216H41.7504V8.416H41.9504V8.216ZM41.9504 7.864H47.9664V7.464H41.9504V7.864ZM47.7664 7.664V8.448H48.1664V7.664H47.7664ZM47.8157 8.31643L43.8397 12.8684L44.141 13.1316L48.117 8.57957L47.8157 8.31643ZM43.9904 12.8H43.1264V13.2H43.9904V12.8ZM43.2765 13.1321L47.4845 8.34809L47.1842 8.08391L42.9762 12.8679L43.2765 13.1321ZM47.3344 8.016H41.9504V8.416H47.3344V8.016ZM42.1504 8.216V7.664H41.7504V8.216H42.1504ZM57.9011 13V13.2H58.1011V13H57.9011ZM53.0371 13H52.8371V13.2H53.0371V13ZM53.0371 7.664V7.464H52.8371V7.664H53.0371ZM53.6851 7.664H53.8851V7.464H53.6851V7.664ZM53.6851 12.464H53.4851V12.664H53.6851V12.464ZM57.9011 12.464H58.1011V12.264H57.9011V12.464ZM57.9011 12.8H53.0371V13.2H57.9011V12.8ZM53.2371 13V7.664H52.8371V13H53.2371ZM53.0371 7.864H53.6851V7.464H53.0371V7.864ZM53.4851 7.664V12.464H53.8851V7.664H53.4851ZM53.6851 12.664H57.9011V12.264H53.6851V12.664ZM57.7011 12.464V13H58.1011V12.464H57.7011Z" fill="black" mask="url(#path-8-outside-1_1_14941)"/>
<path d="M84.4657 16.3253C84.3409 15.5837 84.4184 14.8485 84.5131 14.1133C84.5779 13.608 84.8863 13.3384 85.4213 13.3394C85.5188 13.3394 85.6162 13.3394 85.7137 13.3394C87.0047 13.2965 87.4929 13.2761 87.4881 14.9279C87.4881 15.2048 87.5553 15.3506 87.8822 15.3252C88.2309 15.2985 88.5838 15.3211 88.9348 15.3183C89.0672 15.3183 89.1964 15.3322 89.3132 15.226C90.5352 14.1304 92.4392 14.1115 93.6654 15.1766C93.8073 15.2999 95.2639 15.3931 95.3964 15.2851C95.5014 15.1992 95.4631 15.0765 95.4744 14.9671C95.5066 14.6653 95.5165 14.3598 95.5756 14.063C95.6627 13.6283 95.9229 13.3523 96.4097 13.3403H96.4678C98.0881 13.3703 98.4609 13.0482 98.5768 15.0848C98.6274 15.9616 98.5597 16.8302 98.4774 17.6955C98.4173 18.3315 97.9476 18.4902 96.5904 18.4418C95.939 18.4187 95.6324 18.1649 95.5648 17.5968C95.4153 16.287 95.4153 16.2912 94.05 16.4181C93.8788 16.4342 93.7529 16.4601 93.6905 16.6359C93.5065 17.1546 93.0547 17.3328 92.5627 17.414C91.8129 17.5443 91.0446 17.5343 90.2986 17.3845C89.9552 17.3129 89.6392 17.1717 89.4097 16.8847C89.2896 16.7342 89.3624 16.431 89.0658 16.4268C88.579 16.4199 88.0908 16.4153 87.6059 16.4522C87.4489 16.4638 87.5023 16.6691 87.4924 16.7956C87.3661 18.4007 87.2914 18.4672 85.6356 18.4404C84.8262 18.4275 84.5173 18.1469 84.4691 17.3494C84.4487 17.0093 84.4657 16.6668 84.4657 16.3253Z" fill="black"/>
<path d="M92.871 13.7736C92.0597 13.559 91.2767 13.5124 90.4877 13.6966C90.201 13.7635 90.0647 13.7478 90.1532 13.3781C90.3013 12.7611 90.2322 12.0818 90.8122 11.611C90.886 11.551 90.8671 11.366 90.8675 11.2386C90.8707 9.81222 90.8707 8.38556 90.8675 6.95858C90.8675 6.38954 90.5662 6.11218 89.9801 6.1071C89.7852 6.1071 89.5898 6.1071 89.3949 6.1071C88.5263 6.1071 88.5268 6.1071 88.4218 6.94058C88.4123 7.01581 88.4218 7.10488 88.383 7.16303C87.9861 7.75745 87.3654 7.49116 86.8314 7.51931C86.4292 7.54054 86.2244 7.25256 86.2164 6.89812C86.1922 6.00465 86.2055 5.11025 86.2083 4.21631C86.2122 4.14115 86.2307 4.06738 86.2627 3.99894C86.4463 3.57158 86.9818 3.46082 87.892 3.62143C88.3461 3.70127 88.4776 3.99756 88.4208 4.36353C88.3262 4.96349 88.6101 5.04979 89.1352 5.00964C89.8221 4.9598 90.5222 5.09779 91.1528 4.65612C91.4366 4.45768 91.7995 4.55275 92.0857 4.75119C92.8483 5.27962 93.7012 4.89795 94.5068 4.98195C94.7509 5.00687 94.6487 4.71612 94.6535 4.56659C94.6634 4.20016 94.6227 3.77142 95.0683 3.65973C95.5887 3.52959 96.1521 3.47513 96.6588 3.74003C96.8532 3.84249 96.8806 4.08478 96.8811 4.29938C96.8811 5.13655 96.8811 5.97326 96.8844 6.81044C96.8844 7.27933 96.6304 7.50639 96.1668 7.529C95.9525 7.53961 95.7377 7.53454 95.523 7.529C94.8886 7.51792 94.6289 7.32086 94.6752 6.72044C94.7183 6.1574 94.486 6.04618 93.9888 6.09649C93.661 6.12971 93.3265 6.10156 92.9954 6.10295C92.3407 6.10618 91.9669 6.46431 91.966 7.09472C91.966 8.42617 91.966 9.75761 91.9636 11.0895C91.9636 11.3406 91.9357 11.5778 92.2626 11.6862C92.4608 11.7518 92.5114 11.9733 92.5767 12.1454C92.7692 12.6665 92.835 13.2074 92.871 13.7736Z" fill="black"/>
<mask id="path-12-outside-2_1_14941" maskUnits="userSpaceOnUse" x="108" y="7" width="29" height="7" fill="black">
<rect fill="white" x="108" y="7" width="29" height="7"/>
<path d="M109.6 13H108.84L111.992 7.664H112.856L116.032 13H115.288L114.592 11.8H110.28L109.6 13ZM110.584 11.264H114.288L112.424 8.136L110.584 11.264ZM127.795 7.664L125.251 13H124.355L122.267 8.288L120.155 13H119.275L116.731 7.664H117.459L119.707 12.408L121.819 7.664H122.707L124.811 12.408L127.075 7.664H127.795ZM135.982 10.256C135.982 10.7307 135.945 11.1733 135.87 11.584C135.796 11.9893 135.654 12.2987 135.446 12.512C135.238 12.7253 134.988 12.8613 134.694 12.92C134.401 12.9733 134.052 13 133.646 13H133.582H129.406V7.672H133.862C134.726 7.672 135.294 7.872 135.566 8.272C135.844 8.672 135.982 9.33333 135.982 10.256ZM135.31 10.264C135.31 9.51733 135.217 8.98933 135.03 8.68C134.849 8.36533 134.412 8.208 133.718 8.208H130.054V12.464H133.654C134.401 12.464 134.862 12.3013 135.038 11.976C135.22 11.6507 135.31 11.08 135.31 10.264Z"/>
</mask>
<path d="M109.6 13H108.84L111.992 7.664H112.856L116.032 13H115.288L114.592 11.8H110.28L109.6 13ZM110.584 11.264H114.288L112.424 8.136L110.584 11.264ZM127.795 7.664L125.251 13H124.355L122.267 8.288L120.155 13H119.275L116.731 7.664H117.459L119.707 12.408L121.819 7.664H122.707L124.811 12.408L127.075 7.664H127.795ZM135.982 10.256C135.982 10.7307 135.945 11.1733 135.87 11.584C135.796 11.9893 135.654 12.2987 135.446 12.512C135.238 12.7253 134.988 12.8613 134.694 12.92C134.401 12.9733 134.052 13 133.646 13H133.582H129.406V7.672H133.862C134.726 7.672 135.294 7.872 135.566 8.272C135.844 8.672 135.982 9.33333 135.982 10.256ZM135.31 10.264C135.31 9.51733 135.217 8.98933 135.03 8.68C134.849 8.36533 134.412 8.208 133.718 8.208H130.054V12.464H133.654C134.401 12.464 134.862 12.3013 135.038 11.976C135.22 11.6507 135.31 11.08 135.31 10.264Z" fill="black"/>
<path d="M109.6 13V13.2H109.717L109.774 13.0986L109.6 13ZM108.84 13L108.668 12.8983L108.49 13.2H108.84V13ZM111.992 7.664V7.464H111.878L111.82 7.56228L111.992 7.664ZM112.856 7.664L113.028 7.56171L112.97 7.464H112.856V7.664ZM116.032 13V13.2H116.384L116.204 12.8977L116.032 13ZM115.288 13L115.115 13.1003L115.173 13.2H115.288V13ZM114.592 11.8L114.765 11.6997L114.707 11.6H114.592V11.8ZM110.28 11.8V11.6H110.163L110.106 11.7014L110.28 11.8ZM110.584 11.264L110.412 11.1626L110.234 11.464H110.584V11.264ZM114.288 11.264V11.464H114.64L114.46 11.1616L114.288 11.264ZM112.424 8.136L112.596 8.03362L112.423 7.74343L112.252 8.0346L112.424 8.136ZM109.6 12.8H108.84V13.2H109.6V12.8ZM109.012 13.1017L112.164 7.76572L111.82 7.56228L108.668 12.8983L109.012 13.1017ZM111.992 7.864H112.856V7.464H111.992V7.864ZM112.684 7.76629L115.86 13.1023L116.204 12.8977L113.028 7.56171L112.684 7.76629ZM116.032 12.8H115.288V13.2H116.032V12.8ZM115.461 12.8997L114.765 11.6997L114.419 11.9003L115.115 13.1003L115.461 12.8997ZM114.592 11.6H110.28V12H114.592V11.6ZM110.106 11.7014L109.426 12.9014L109.774 13.0986L110.454 11.8986L110.106 11.7014ZM110.584 11.464H114.288V11.064H110.584V11.464ZM114.46 11.1616L112.596 8.03362L112.252 8.23838L114.116 11.3664L114.46 11.1616ZM112.252 8.0346L110.412 11.1626L110.756 11.3654L112.596 8.2374L112.252 8.0346ZM127.795 7.664L127.976 7.75007L128.112 7.464H127.795V7.664ZM125.251 13V13.2H125.377L125.432 13.0861L125.251 13ZM124.355 13L124.172 13.081L124.225 13.2H124.355V13ZM122.267 8.288L122.45 8.20697L122.268 7.79669L122.084 8.2062L122.267 8.288ZM120.155 13V13.2H120.285L120.338 13.0818L120.155 13ZM119.275 13L119.094 13.0861L119.149 13.2H119.275V13ZM116.731 7.664V7.464H116.414L116.55 7.75007L116.731 7.664ZM117.459 7.664L117.64 7.57836L117.586 7.464H117.459V7.664ZM119.707 12.408L119.526 12.4936L119.713 12.887L119.89 12.4893L119.707 12.408ZM121.819 7.664V7.464H121.689L121.636 7.58266L121.819 7.664ZM122.707 7.664L122.89 7.58291L122.837 7.464H122.707V7.664ZM124.811 12.408L124.628 12.4891L124.804 12.8863L124.991 12.4941L124.811 12.408ZM127.075 7.664V7.464H126.949L126.895 7.57786L127.075 7.664ZM127.614 7.57793L125.07 12.9139L125.432 13.0861L127.976 7.75007L127.614 7.57793ZM125.251 12.8H124.355V13.2H125.251V12.8ZM124.538 12.919L122.45 8.20697L122.084 8.36903L124.172 13.081L124.538 12.919ZM122.084 8.2062L119.972 12.9182L120.338 13.0818L122.45 8.3698L122.084 8.2062ZM120.155 12.8H119.275V13.2H120.155V12.8ZM119.456 12.9139L116.912 7.57793L116.55 7.75007L119.094 13.0861L119.456 12.9139ZM116.731 7.864H117.459V7.464H116.731V7.864ZM117.278 7.74964L119.526 12.4936L119.888 12.3224L117.64 7.57836L117.278 7.74964ZM119.89 12.4893L122.002 7.74534L121.636 7.58266L119.524 12.3267L119.89 12.4893ZM121.819 7.864H122.707V7.464H121.819V7.864ZM122.524 7.74508L124.628 12.4891L124.994 12.3269L122.89 7.58291L122.524 7.74508ZM124.991 12.4941L127.255 7.75014L126.895 7.57786L124.631 12.3219L124.991 12.4941ZM127.075 7.864H127.795V7.464H127.075V7.864ZM135.87 11.584L136.067 11.6202L136.067 11.6198L135.87 11.584ZM135.446 12.512L135.303 12.3724V12.3724L135.446 12.512ZM134.694 12.92L134.73 13.1168L134.734 13.1161L134.694 12.92ZM129.406 13H129.206V13.2H129.406V13ZM129.406 7.672V7.472H129.206V7.672H129.406ZM135.566 8.272L135.401 8.38447L135.402 8.38596L135.566 8.272ZM135.03 8.68L134.857 8.77988L134.859 8.78333L135.03 8.68ZM130.054 8.208V8.008H129.854V8.208H130.054ZM130.054 12.464H129.854V12.664H130.054V12.464ZM135.038 11.976L134.864 11.8786L134.862 11.8808L135.038 11.976ZM135.782 10.256C135.782 10.7203 135.746 11.1508 135.674 11.5482L136.067 11.6198C136.144 11.1958 136.182 10.7411 136.182 10.256H135.782ZM135.674 11.5478C135.604 11.9286 135.475 12.1964 135.303 12.3724L135.59 12.6516C135.834 12.4009 135.988 12.0501 136.067 11.6202L135.674 11.5478ZM135.303 12.3724C135.123 12.5567 134.909 12.6731 134.655 12.7239L134.734 13.1161C135.066 13.0496 135.353 12.894 135.59 12.6516L135.303 12.3724ZM134.659 12.7232C134.38 12.7738 134.044 12.8 133.646 12.8V13.2C134.06 13.2 134.422 13.1729 134.73 13.1168L134.659 12.7232ZM133.646 12.8H133.582V13.2H133.646V12.8ZM133.582 12.8H129.406V13.2H133.582V12.8ZM129.606 13V7.672H129.206V13H129.606ZM129.406 7.872H133.862V7.472H129.406V7.872ZM133.862 7.872C134.711 7.872 135.188 8.0709 135.401 8.38446L135.732 8.15954C135.401 7.67309 134.742 7.472 133.862 7.472V7.872ZM135.402 8.38596C135.643 8.73379 135.782 9.34301 135.782 10.256H136.182C136.182 9.32366 136.044 8.61021 135.731 8.15804L135.402 8.38596ZM135.51 10.264C135.51 9.51222 135.418 8.93606 135.202 8.57667L134.859 8.78333C135.016 9.04261 135.11 9.52245 135.11 10.264H135.51ZM135.204 8.58014C134.964 8.16344 134.42 8.008 133.718 8.008V8.408C134.403 8.408 134.735 8.56723 134.857 8.77986L135.204 8.58014ZM133.718 8.008H130.054V8.408H133.718V8.008ZM129.854 8.208V12.464H130.254V8.208H129.854ZM130.054 12.664H133.654V12.264H130.054V12.664ZM133.654 12.664C134.04 12.664 134.367 12.6224 134.627 12.5306C134.889 12.4382 135.096 12.29 135.214 12.0712L134.862 11.8808C134.805 11.9874 134.693 12.0831 134.494 12.1534C134.293 12.2243 134.016 12.264 133.654 12.264V12.664ZM135.213 12.0734C135.422 11.6994 135.51 11.0825 135.51 10.264H135.11C135.11 11.0775 135.018 11.602 134.864 11.8786L135.213 12.0734Z" fill="black" mask="url(#path-12-outside-2_1_14941)"/>
<path d="M180.248 12.2207C180.248 12.2207 180.302 11.6669 180.208 11.4976C180.115 11.3282 179.267 10.1163 178.639 9.88828C178.639 9.88828 177.717 9.64691 176.876 9.50385C176.034 9.36078 174.351 9.30817 174.351 9.30817C174.351 9.30817 171.733 7.28862 170.157 7.08002C168.581 6.87142 162.143 7.08002 162.143 7.08002C162.143 7.08002 160.362 7.38415 160.148 7.41876C159.935 7.45337 160.48 7.90519 160.48 7.90519L158.993 9.38201C158.883 10.007 158.829 10.6401 158.832 11.2742C158.832 12.3689 158.738 12.9818 158.738 12.9818L160.299 13.2291L160.323 13.2314C160.317 13.1682 160.314 13.1041 160.314 13.0394C160.314 12.7217 160.383 12.4076 160.518 12.1184C160.653 11.8291 160.85 11.5714 161.095 11.3625C161.341 11.1535 161.629 10.9983 161.941 10.9071C162.253 10.816 162.581 10.791 162.904 10.834C163.227 10.8769 163.536 10.9867 163.812 11.1561C164.087 11.3254 164.323 11.5504 164.502 11.8158C164.681 12.0812 164.8 12.3809 164.85 12.6948C164.901 13.0087 164.882 13.3296 164.794 13.6357L165.054 13.6592L174.07 13.7515H174.082C173.984 13.4454 173.955 13.1223 173.997 12.8043C174.039 12.4862 174.15 12.1808 174.325 11.9088C174.499 11.6369 174.731 11.4048 175.006 11.2286C175.28 11.0523 175.591 10.936 175.916 10.8876C176.24 10.8392 176.572 10.8598 176.888 10.9481C177.204 11.0364 177.497 11.1902 177.746 11.399C177.996 11.6079 178.196 11.8668 178.333 12.1582C178.471 12.4495 178.542 12.7663 178.542 13.087C178.542 13.2859 178.411 14.0561 178.411 14.0561C178.411 14.0561 178.812 14.0691 178.865 14.0561C178.919 14.0432 178.939 13.6846 178.939 13.6846C178.939 13.6846 180.02 13.6717 180.181 12.9356C180.181 12.9356 179.933 12.7076 180.034 12.4663C180.134 12.2249 180.248 12.2207 180.248 12.2207ZM160.201 9.94228C159.979 10.1269 159.418 10.3812 159.374 10.329C159.329 10.2769 159.427 9.556 159.427 9.556H160.531C160.445 9.70234 160.333 9.83302 160.201 9.94228ZM163.2 7.65228C162.963 7.98826 162.064 8.93481 161.822 9.02619C161.546 9.13003 159.872 9.08664 159.835 9.02619C159.798 8.96573 161.091 7.61859 161.091 7.61859L163.143 7.5526C163.155 7.55206 163.167 7.55484 163.178 7.56061C163.188 7.56639 163.197 7.57493 163.203 7.58529C163.209 7.59565 163.212 7.6074 163.211 7.61924C163.211 7.63107 163.207 7.64252 163.2 7.65228ZM164.002 9.08895C163.694 8.93481 163.775 8.8522 163.748 8.61775C163.721 8.38331 164.457 7.5526 164.457 7.5526C164.457 7.5526 167.395 7.44507 167.489 7.5526C167.583 7.66013 167.703 9.25602 167.703 9.25602C167.703 9.25602 164.307 9.2431 164.002 9.08895ZM172.403 9.60815C172.336 9.6603 168.516 9.37324 168.516 9.37324L168.102 7.5526C168.102 7.5526 168.222 7.58813 169.251 7.5526C170.279 7.51706 171.174 7.94026 171.775 8.19871C172.377 8.45715 172.269 8.79866 172.162 8.81113C172.055 8.82359 171.855 9.0068 171.909 9.25417C171.962 9.50154 172.469 9.556 172.401 9.60815H172.403ZM178.695 10.9631C178.553 10.9308 178.488 10.7615 178.328 10.6244C178.167 10.4873 177.855 10.5529 177.68 10.5256C177.506 10.4984 176.832 10.0313 176.832 10.0313C176.832 10.0313 177.473 10.0835 177.873 10.1356C178.272 10.1878 178.18 10.1356 178.541 10.2399C178.902 10.3442 179.369 10.9631 179.369 10.9631C179.369 10.9631 178.833 10.9959 178.692 10.9631H178.695Z" fill="#03060D"/>
<path d="M162.616 11.2483C162.234 11.2482 161.861 11.3585 161.544 11.5654C161.227 11.7722 160.979 12.0662 160.833 12.4102C160.687 12.7542 160.649 13.1327 160.723 13.4979C160.798 13.8631 160.981 14.1986 161.251 14.4619C161.521 14.7252 161.865 14.9045 162.239 14.9771C162.614 15.0497 163.002 15.0124 163.354 14.8699C163.707 14.7273 164.008 14.486 164.22 14.1763C164.432 13.8667 164.545 13.5027 164.545 13.1303C164.545 12.6314 164.341 12.153 163.98 11.8002C163.618 11.4474 163.128 11.2489 162.616 11.2483ZM161.661 12.1215C161.912 12.2908 162.188 12.5004 162.241 12.583C162.267 12.6342 162.284 12.69 162.288 12.7473C162.273 12.7574 162.259 12.7683 162.246 12.78C162.146 12.7183 162.032 12.6822 161.915 12.6753C161.764 12.6702 161.471 12.7625 161.236 12.8469C161.297 12.5681 161.446 12.3147 161.661 12.1215ZM161.901 12.9896H161.906C161.971 12.9972 162.034 13.0178 162.091 13.05C162.086 13.0767 162.083 13.1037 162.083 13.1308C162.084 13.1567 162.086 13.1827 162.09 13.2083C162.015 13.2264 161.944 13.2577 161.881 13.3006C161.754 13.3883 161.569 13.6523 161.429 13.8706C161.296 13.6678 161.221 13.4346 161.21 13.1945C161.474 13.0939 161.795 12.9896 161.901 12.9896ZM162.068 13.5567C162.127 13.5227 162.193 13.5012 162.262 13.4935L162.266 13.4968C162.225 13.579 162.203 13.6689 162.201 13.7603C162.201 13.926 162.337 14.2758 162.429 14.4927C162.135 14.4538 161.861 14.3256 161.646 14.1262C161.795 13.8881 161.987 13.6144 162.068 13.5567ZM162.804 12.4648C162.787 12.5447 162.752 12.6201 162.703 12.6859C162.67 12.6761 162.637 12.6697 162.603 12.667C162.592 12.5781 162.562 12.4926 162.515 12.4159C162.427 12.2775 162.128 12.0582 161.938 11.9262C162.146 11.8147 162.379 11.7561 162.616 11.7559H162.629C162.724 12.0384 162.813 12.3684 162.804 12.4648ZM162.572 13.5964C162.638 13.5949 162.702 13.5801 162.761 13.5531C162.761 13.5547 162.761 13.5564 162.761 13.5581C162.78 13.6814 162.832 13.7977 162.911 13.8955C163.002 13.9984 163.242 14.1364 163.445 14.2393C163.249 14.3794 163.02 14.4676 162.779 14.4954C162.67 14.2513 162.521 13.8715 162.522 13.7617C162.527 13.7039 162.544 13.6477 162.572 13.5964ZM163.286 12.6185C163.221 12.6478 163.151 12.6636 163.08 12.6647C163.105 12.6101 163.121 12.5522 163.128 12.493C163.142 12.3453 163.061 12.0439 162.986 11.8007C163.247 11.8694 163.483 12.0106 163.663 12.2073C163.49 12.4279 163.347 12.5839 163.286 12.6185ZM163.16 13.6906C163.12 13.6361 163.092 13.5742 163.078 13.5087C163.152 13.5535 163.235 13.5827 163.321 13.5946C163.463 13.6107 163.747 13.5461 163.977 13.4848C163.924 13.6777 163.828 13.8571 163.697 14.0104C163.419 13.8724 163.209 13.7473 163.16 13.6906ZM163.049 13.1188L163.038 13.1068C163.036 13.0612 163.027 13.0163 163.011 12.9734C163.035 12.9734 163.058 12.9757 163.083 12.9757C163.211 12.9787 163.337 12.9493 163.45 12.8903C163.541 12.8377 163.678 12.6997 163.857 12.4796C163.967 12.6796 164.025 12.9032 164.025 13.1303C164.025 13.14 164.025 13.1497 164.025 13.1589C163.765 13.2332 163.451 13.3066 163.358 13.2974C163.25 13.2835 163.086 13.1594 163.049 13.1188Z" fill="#080B0F"/>
<path d="M176.263 11.2483C175.881 11.2484 175.508 11.3589 175.191 11.5658C174.874 11.7727 174.627 12.0668 174.481 12.4108C174.335 12.7548 174.297 13.1333 174.371 13.4985C174.446 13.8636 174.63 14.199 174.899 14.4622C175.169 14.7254 175.513 14.9046 175.888 14.9772C176.262 15.0497 176.65 15.0124 177.002 14.8698C177.355 14.7272 177.656 14.4859 177.868 14.1762C178.08 13.8666 178.193 13.5026 178.193 13.1303C178.193 12.6312 177.989 12.1527 177.627 11.7999C177.265 11.447 176.775 11.2487 176.263 11.2483ZM175.308 12.1215C175.559 12.2908 175.835 12.5004 175.888 12.583C175.914 12.6342 175.931 12.69 175.935 12.7473C175.92 12.7574 175.906 12.7683 175.893 12.78C175.793 12.7183 175.679 12.6822 175.562 12.6753C175.411 12.6702 175.118 12.7625 174.883 12.8469C174.944 12.5681 175.093 12.3147 175.308 12.1215ZM175.548 12.9896H175.553C175.618 12.9973 175.681 13.0179 175.738 13.05C175.733 13.0767 175.73 13.1037 175.73 13.1308C175.731 13.1567 175.733 13.1827 175.737 13.2083C175.662 13.2264 175.591 13.2577 175.528 13.3006C175.401 13.3883 175.216 13.6523 175.076 13.8706C174.943 13.668 174.867 13.435 174.856 13.1949C175.121 13.0939 175.442 12.9896 175.548 12.9896ZM175.715 13.5567C175.774 13.5227 175.84 13.5012 175.909 13.4935C175.91 13.4943 175.912 13.4954 175.913 13.4968C175.872 13.5791 175.85 13.6689 175.848 13.7603C175.848 13.926 175.984 14.2758 176.076 14.4927C175.782 14.4538 175.508 14.3256 175.293 14.1262C175.442 13.8881 175.634 13.6144 175.715 13.5567ZM176.451 12.4648C176.434 12.5447 176.399 12.6201 176.35 12.6859C176.317 12.6761 176.284 12.6697 176.25 12.667C176.239 12.5781 176.209 12.4926 176.162 12.4159C176.074 12.2774 175.775 12.0582 175.585 11.9262C175.793 11.8147 176.026 11.7561 176.263 11.7559H176.276C176.371 12.0384 176.46 12.3684 176.451 12.4648ZM176.219 13.5964C176.285 13.5949 176.349 13.5801 176.408 13.5531C176.408 13.5547 176.408 13.5564 176.408 13.5581C176.427 13.6814 176.479 13.7977 176.558 13.8955C176.649 13.9984 176.889 14.1364 177.092 14.2393C176.896 14.3794 176.667 14.4676 176.426 14.4954C176.317 14.2513 176.168 13.8715 176.169 13.7617C176.174 13.7039 176.191 13.6477 176.219 13.5964ZM176.933 12.6185C176.868 12.6478 176.798 12.6636 176.727 12.6647C176.752 12.6101 176.768 12.5522 176.775 12.493C176.789 12.3453 176.708 12.0439 176.633 11.8007C176.894 11.8694 177.13 12.0106 177.311 12.2073C177.137 12.4279 176.994 12.5839 176.933 12.6185ZM176.807 13.6906C176.767 13.6361 176.739 13.5742 176.725 13.5087C176.799 13.5535 176.882 13.5827 176.968 13.5946C177.11 13.6107 177.394 13.5461 177.624 13.4848C177.571 13.6776 177.475 13.857 177.344 14.0104C177.066 13.8724 176.856 13.7473 176.807 13.6906ZM176.696 13.1188L176.685 13.1068C176.683 13.0612 176.674 13.0163 176.658 12.9734C176.682 12.9734 176.705 12.9757 176.73 12.9757C176.858 12.9787 176.984 12.9493 177.097 12.8903C177.188 12.8377 177.325 12.6997 177.503 12.4796C177.614 12.6795 177.672 12.9031 177.672 13.1303C177.672 13.14 177.672 13.1497 177.672 13.1589C177.412 13.2332 177.098 13.3066 177.005 13.2974C176.897 13.2835 176.733 13.1594 176.696 13.1188Z" fill="#080B0F"/>
<mask id="path-17-outside-3_1_14941" maskUnits="userSpaceOnUse" x="187" y="7" width="24" height="7" fill="black">
<rect fill="white" x="187" y="7" width="24" height="7"/>
<path d="M192.608 8.36C192.496 8.30667 192.293 8.264 192 8.232C191.707 8.19467 191.328 8.176 190.864 8.176H190.64C190.288 8.176 189.923 8.192 189.544 8.224C189.171 8.256 188.899 8.30933 188.728 8.384C188.557 8.45867 188.448 8.56 188.4 8.688C188.352 8.816 188.328 8.97067 188.328 9.152C188.328 9.47733 188.416 9.69867 188.592 9.816C188.773 9.93333 189.035 9.992 189.376 9.992L189.96 10.008L191.216 10C191.435 10 191.629 10.0027 191.8 10.008C191.971 10.0133 192.227 10.0347 192.568 10.072C192.915 10.1093 193.192 10.232 193.4 10.44C193.613 10.6427 193.72 10.992 193.72 11.488C193.72 11.8133 193.669 12.0853 193.568 12.304C193.467 12.5173 193.293 12.68 193.048 12.792C192.808 12.8987 192.515 12.968 192.168 13C191.827 13.032 191.453 13.048 191.048 13.048H190.624C190.224 13.048 189.923 13.0427 189.72 13.032C189.523 13.0267 189.216 12.9973 188.8 12.944C188.389 12.8907 188.096 12.752 187.92 12.528C187.744 12.2987 187.656 11.9013 187.656 11.336H188.304V11.448C188.304 11.72 188.328 11.9227 188.376 12.056C188.429 12.184 188.56 12.28 188.768 12.344C188.981 12.4027 189.264 12.4427 189.616 12.464C189.968 12.48 190.315 12.488 190.656 12.488C191.211 12.488 191.677 12.464 192.056 12.416C192.44 12.368 192.701 12.2773 192.84 12.144C192.979 12.0107 193.048 11.792 193.048 11.488C193.048 11.104 192.957 10.8613 192.776 10.76C192.6 10.6533 192.299 10.6 191.872 10.6L190.648 10.584L189.216 10.544C188.715 10.544 188.328 10.448 188.056 10.256C187.784 10.064 187.648 9.73867 187.648 9.28C187.648 8.91733 187.707 8.616 187.824 8.376C187.941 8.13067 188.139 7.95733 188.416 7.856C188.699 7.74933 189.029 7.68267 189.408 7.656C189.787 7.624 190.211 7.608 190.68 7.608C191.069 7.608 191.349 7.61333 191.52 7.624C191.696 7.62933 191.979 7.65333 192.368 7.696C192.763 7.73333 193.064 7.86667 193.272 8.096C193.48 8.32533 193.584 8.67467 193.584 9.144H192.936C192.936 8.904 192.907 8.72533 192.848 8.608C192.795 8.49067 192.715 8.408 192.608 8.36ZM202.17 11.352C202.17 12.1093 202.018 12.5813 201.714 12.768C201.416 12.9547 200.848 13.048 200.01 13.048L198.938 13.056L197.41 13.032C196.882 13.032 196.496 12.9173 196.25 12.688C196.01 12.4533 195.89 12.072 195.89 11.544V7.672H196.538V11.472C196.538 11.8987 196.634 12.1733 196.826 12.296C197.018 12.4133 197.346 12.472 197.81 12.472L198.954 12.488L200.194 12.464C200.696 12.464 201.042 12.4027 201.234 12.28C201.426 12.1573 201.522 11.8693 201.522 11.416V11.296V7.672H202.17V11.352ZM210.434 7.664L207.474 13H206.586L203.666 7.664H204.418L207.034 12.424L209.69 7.664H210.434Z"/>
</mask>
<path d="M192.608 8.36C192.496 8.30667 192.293 8.264 192 8.232C191.707 8.19467 191.328 8.176 190.864 8.176H190.64C190.288 8.176 189.923 8.192 189.544 8.224C189.171 8.256 188.899 8.30933 188.728 8.384C188.557 8.45867 188.448 8.56 188.4 8.688C188.352 8.816 188.328 8.97067 188.328 9.152C188.328 9.47733 188.416 9.69867 188.592 9.816C188.773 9.93333 189.035 9.992 189.376 9.992L189.96 10.008L191.216 10C191.435 10 191.629 10.0027 191.8 10.008C191.971 10.0133 192.227 10.0347 192.568 10.072C192.915 10.1093 193.192 10.232 193.4 10.44C193.613 10.6427 193.72 10.992 193.72 11.488C193.72 11.8133 193.669 12.0853 193.568 12.304C193.467 12.5173 193.293 12.68 193.048 12.792C192.808 12.8987 192.515 12.968 192.168 13C191.827 13.032 191.453 13.048 191.048 13.048H190.624C190.224 13.048 189.923 13.0427 189.72 13.032C189.523 13.0267 189.216 12.9973 188.8 12.944C188.389 12.8907 188.096 12.752 187.92 12.528C187.744 12.2987 187.656 11.9013 187.656 11.336H188.304V11.448C188.304 11.72 188.328 11.9227 188.376 12.056C188.429 12.184 188.56 12.28 188.768 12.344C188.981 12.4027 189.264 12.4427 189.616 12.464C189.968 12.48 190.315 12.488 190.656 12.488C191.211 12.488 191.677 12.464 192.056 12.416C192.44 12.368 192.701 12.2773 192.84 12.144C192.979 12.0107 193.048 11.792 193.048 11.488C193.048 11.104 192.957 10.8613 192.776 10.76C192.6 10.6533 192.299 10.6 191.872 10.6L190.648 10.584L189.216 10.544C188.715 10.544 188.328 10.448 188.056 10.256C187.784 10.064 187.648 9.73867 187.648 9.28C187.648 8.91733 187.707 8.616 187.824 8.376C187.941 8.13067 188.139 7.95733 188.416 7.856C188.699 7.74933 189.029 7.68267 189.408 7.656C189.787 7.624 190.211 7.608 190.68 7.608C191.069 7.608 191.349 7.61333 191.52 7.624C191.696 7.62933 191.979 7.65333 192.368 7.696C192.763 7.73333 193.064 7.86667 193.272 8.096C193.48 8.32533 193.584 8.67467 193.584 9.144H192.936C192.936 8.904 192.907 8.72533 192.848 8.608C192.795 8.49067 192.715 8.408 192.608 8.36ZM202.17 11.352C202.17 12.1093 202.018 12.5813 201.714 12.768C201.416 12.9547 200.848 13.048 200.01 13.048L198.938 13.056L197.41 13.032C196.882 13.032 196.496 12.9173 196.25 12.688C196.01 12.4533 195.89 12.072 195.89 11.544V7.672H196.538V11.472C196.538 11.8987 196.634 12.1733 196.826 12.296C197.018 12.4133 197.346 12.472 197.81 12.472L198.954 12.488L200.194 12.464C200.696 12.464 201.042 12.4027 201.234 12.28C201.426 12.1573 201.522 11.8693 201.522 11.416V11.296V7.672H202.17V11.352ZM210.434 7.664L207.474 13H206.586L203.666 7.664H204.418L207.034 12.424L209.69 7.664H210.434Z" fill="black"/>
<path d="M192.608 8.36L192.522 8.54061L192.526 8.54238L192.608 8.36ZM192 8.232L191.975 8.43043L191.978 8.43082L192 8.232ZM189.544 8.224L189.527 8.02471L189.527 8.02473L189.544 8.224ZM188.728 8.384L188.648 8.20077L188.648 8.20077L188.728 8.384ZM188.592 9.816L188.481 9.98243L188.483 9.98391L188.592 9.816ZM189.376 9.992L189.381 9.792H189.376V9.992ZM189.96 10.008L189.955 10.208L189.961 10.208L189.96 10.008ZM191.216 10V9.8L191.215 9.8L191.216 10ZM191.8 10.008L191.794 10.2079V10.2079L191.8 10.008ZM192.568 10.072L192.546 10.2708L192.547 10.2709L192.568 10.072ZM193.4 10.44L193.259 10.5815L193.262 10.585L193.4 10.44ZM193.568 12.304L193.749 12.3898L193.749 12.3881L193.568 12.304ZM193.048 12.792L193.129 12.9748L193.131 12.9739L193.048 12.792ZM192.168 13L192.15 12.8008L192.149 12.8009L192.168 13ZM189.72 13.032L189.731 12.8322L189.725 12.8321L189.72 13.032ZM188.8 12.944L188.774 13.1423L188.775 13.1424L188.8 12.944ZM187.92 12.528L187.761 12.6498L187.763 12.6516L187.92 12.528ZM187.656 11.336V11.136H187.456V11.336H187.656ZM188.304 11.336H188.504V11.136H188.304V11.336ZM188.376 12.056L188.188 12.1238L188.191 12.1329L188.376 12.056ZM188.768 12.344L188.709 12.5352L188.715 12.5368L188.768 12.344ZM189.616 12.464L189.604 12.6637L189.607 12.6638L189.616 12.464ZM192.056 12.416L192.031 12.2175L192.031 12.2176L192.056 12.416ZM192.84 12.144L192.701 11.9998V11.9998L192.84 12.144ZM192.776 10.76L192.672 10.9311L192.678 10.9346L192.776 10.76ZM191.872 10.6L191.869 10.8H191.872V10.6ZM190.648 10.584L190.642 10.7839L190.645 10.784L190.648 10.584ZM189.216 10.544L189.222 10.344H189.216V10.544ZM188.056 10.256L188.171 10.0926V10.0926L188.056 10.256ZM187.824 8.376L188.004 8.46385L188.004 8.46229L187.824 8.376ZM188.416 7.856L188.485 8.04386L188.487 8.04312L188.416 7.856ZM189.408 7.656L189.422 7.85553L189.425 7.85529L189.408 7.656ZM191.52 7.624L191.508 7.82371L191.514 7.82391L191.52 7.624ZM192.368 7.696L192.346 7.89483L192.349 7.89511L192.368 7.696ZM193.584 9.144V9.344H193.784V9.144H193.584ZM192.936 9.144H192.736V9.344H192.936V9.144ZM192.848 8.608L192.666 8.69082L192.669 8.69744L192.848 8.608ZM192.694 8.17943C192.548 8.11006 192.315 8.06518 192.022 8.03318L191.978 8.43082C192.272 8.46282 192.444 8.50327 192.522 8.54057L192.694 8.17943ZM192.025 8.0336C191.72 7.99478 191.332 7.976 190.864 7.976V8.376C191.324 8.376 191.693 8.39455 191.975 8.4304L192.025 8.0336ZM190.864 7.976H190.64V8.376H190.864V7.976ZM190.64 7.976C190.282 7.976 189.911 7.99227 189.527 8.02471L189.561 8.42329C189.934 8.39173 190.294 8.376 190.64 8.376V7.976ZM189.527 8.02473C189.149 8.05711 188.85 8.11236 188.648 8.20077L188.808 8.56723C188.947 8.50631 189.192 8.45489 189.561 8.42327L189.527 8.02473ZM188.648 8.20077C188.446 8.289 188.286 8.42298 188.213 8.61777L188.587 8.75822C188.61 8.69701 188.669 8.62833 188.808 8.56723L188.648 8.20077ZM188.213 8.61777C188.154 8.77423 188.128 8.95406 188.128 9.152H188.528C188.528 8.98727 188.55 8.85777 188.587 8.75822L188.213 8.61777ZM188.128 9.152C188.128 9.50651 188.224 9.81107 188.481 9.98241L188.703 9.64959C188.608 9.58626 188.528 9.44816 188.528 9.152H188.128ZM188.483 9.98391C188.711 10.1311 189.017 10.192 189.376 10.192V9.792C189.053 9.792 188.836 9.73559 188.701 9.64809L188.483 9.98391ZM189.371 10.1919L189.955 10.2079L189.965 9.80807L189.381 9.79207L189.371 10.1919ZM189.961 10.208L191.217 10.2L191.215 9.8L189.959 9.808L189.961 10.208ZM191.216 10.2C191.433 10.2 191.626 10.2026 191.794 10.2079L191.806 9.8081C191.633 9.80268 191.436 9.8 191.216 9.8V10.2ZM191.794 10.2079C191.956 10.213 192.206 10.2336 192.546 10.2708L192.59 9.87319C192.247 9.83573 191.985 9.81368 191.806 9.8081L191.794 10.2079ZM192.547 10.2709C192.857 10.3042 193.089 10.4114 193.259 10.5814L193.541 10.2986C193.295 10.0526 192.973 9.91443 192.589 9.87315L192.547 10.2709ZM193.262 10.585C193.416 10.7309 193.52 11.0112 193.52 11.488H193.92C193.92 10.9728 193.811 10.5544 193.538 10.295L193.262 10.585ZM193.52 11.488C193.52 11.7939 193.472 12.0351 193.387 12.2199L193.749 12.3881C193.866 12.1356 193.92 11.8328 193.92 11.488H193.52ZM193.387 12.2182C193.309 12.383 193.174 12.5147 192.965 12.6101L193.131 12.9739C193.413 12.8453 193.624 12.6517 193.749 12.3898L193.387 12.2182ZM192.967 12.6092C192.752 12.7047 192.481 12.7702 192.15 12.8008L192.186 13.1992C192.548 13.1658 192.864 13.0926 193.129 12.9748L192.967 12.6092ZM192.149 12.8009C191.815 12.8322 191.448 12.848 191.048 12.848V13.248C191.458 13.248 191.838 13.2318 192.187 13.1991L192.149 12.8009ZM191.048 12.848H190.624V13.248H191.048V12.848ZM190.624 12.848C190.225 12.848 189.928 12.8427 189.731 12.8323L189.709 13.2317C189.918 13.2427 190.223 13.248 190.624 13.248V12.848ZM189.725 12.8321C189.539 12.827 189.24 12.7988 188.825 12.7456L188.775 13.1424C189.192 13.1958 189.507 13.2263 189.715 13.2319L189.725 12.8321ZM188.826 12.7457C188.444 12.696 188.209 12.5718 188.077 12.4044L187.763 12.6516C187.983 12.9322 188.335 13.0853 188.774 13.1423L188.826 12.7457ZM188.079 12.4062C187.945 12.2323 187.856 11.893 187.856 11.336H187.456C187.456 11.9097 187.543 12.3651 187.761 12.6498L188.079 12.4062ZM187.656 11.536H188.304V11.136H187.656V11.536ZM188.104 11.336V11.448H188.504V11.336H188.104ZM188.104 11.448C188.104 11.7259 188.128 11.9569 188.188 12.1237L188.564 11.9883C188.528 11.8884 188.504 11.7141 188.504 11.448H188.104ZM188.191 12.1329C188.278 12.3408 188.477 12.4636 188.709 12.5352L188.827 12.1528C188.643 12.0964 188.581 12.0272 188.561 11.9791L188.191 12.1329ZM188.715 12.5368C188.947 12.6007 189.245 12.6419 189.604 12.6636L189.628 12.2644C189.283 12.2434 189.016 12.2046 188.821 12.1512L188.715 12.5368ZM189.607 12.6638C189.962 12.6799 190.312 12.688 190.656 12.688V12.288C190.318 12.288 189.974 12.2801 189.625 12.2642L189.607 12.6638ZM190.656 12.688C191.216 12.688 191.691 12.6638 192.081 12.6144L192.031 12.2176C191.663 12.2642 191.206 12.288 190.656 12.288V12.688ZM192.081 12.6145C192.472 12.5656 192.79 12.4694 192.979 12.2882L192.701 11.9998C192.613 12.0853 192.408 12.1704 192.031 12.2175L192.081 12.6145ZM192.979 12.2882C193.174 12.1001 193.248 11.8157 193.248 11.488H192.848C192.848 11.7683 192.783 11.9212 192.701 11.9998L192.979 12.2882ZM193.248 11.488C193.248 11.0926 193.158 10.7442 192.874 10.5854L192.678 10.9346C192.757 10.9784 192.848 11.1154 192.848 11.488H193.248ZM192.88 10.589C192.653 10.4518 192.304 10.4 191.872 10.4V10.8C192.294 10.8 192.547 10.8548 192.672 10.931L192.88 10.589ZM191.875 10.4L190.651 10.384L190.645 10.784L191.869 10.8L191.875 10.4ZM190.654 10.3841L189.222 10.3441L189.21 10.7439L190.642 10.7839L190.654 10.3841ZM189.216 10.344C188.736 10.344 188.396 10.2515 188.171 10.0926L187.941 10.4194C188.26 10.6445 188.693 10.744 189.216 10.744V10.344ZM188.171 10.0926C187.971 9.95116 187.848 9.70027 187.848 9.28H187.448C187.448 9.77706 187.597 10.1768 187.941 10.4194L188.171 10.0926ZM187.848 9.28C187.848 8.93745 187.904 8.66852 188.004 8.46384L187.644 8.28816C187.51 8.56348 187.448 8.89721 187.448 9.28H187.848ZM188.004 8.46229C188.097 8.26839 188.252 8.12893 188.485 8.04385L188.347 7.66815C188.026 7.78573 187.786 7.99295 187.644 8.28971L188.004 8.46229ZM188.487 8.04312C188.747 7.9448 189.058 7.88114 189.422 7.85551L189.394 7.45649C189.001 7.48419 188.65 7.55387 188.345 7.66888L188.487 8.04312ZM189.425 7.85529C189.797 7.82386 190.215 7.808 190.68 7.808V7.408C190.206 7.408 189.777 7.42414 189.391 7.45671L189.425 7.85529ZM190.68 7.808C191.069 7.808 191.344 7.81337 191.508 7.82361L191.532 7.42439C191.355 7.4133 191.07 7.408 190.68 7.408V7.808ZM191.514 7.82391C191.681 7.82898 191.957 7.8522 192.346 7.89481L192.39 7.49719C192 7.45447 191.711 7.42968 191.526 7.42409L191.514 7.82391ZM192.349 7.89511C192.709 7.92911 192.958 8.04746 193.124 8.23036L193.42 7.96164C193.17 7.68588 192.817 7.53756 192.387 7.49689L192.349 7.89511ZM193.124 8.23036C193.285 8.40791 193.384 8.69948 193.384 9.144H193.784C193.784 8.64985 193.675 8.24276 193.42 7.96164L193.124 8.23036ZM193.584 8.944H192.936V9.344H193.584V8.944ZM193.136 9.144C193.136 8.89464 193.107 8.6781 193.027 8.51856L192.669 8.69744C192.707 8.77256 192.736 8.91336 192.736 9.144H193.136ZM193.03 8.52524C192.959 8.36851 192.846 8.24765 192.69 8.17762L192.526 8.54238C192.584 8.56835 192.631 8.61283 192.666 8.69076L193.03 8.52524ZM201.714 12.768L201.61 12.5976L201.608 12.5984L201.714 12.768ZM200.01 13.048V12.848L200.009 12.848L200.01 13.048ZM198.938 13.056L198.935 13.256L198.94 13.256L198.938 13.056ZM197.41 13.032L197.413 12.832H197.41V13.032ZM196.25 12.688L196.11 12.831L196.114 12.8341L196.25 12.688ZM195.89 7.672V7.472H195.69V7.672H195.89ZM196.538 7.672H196.738V7.472H196.538V7.672ZM196.826 12.296L196.718 12.4646L196.722 12.4667L196.826 12.296ZM197.81 12.472L197.813 12.272H197.81V12.472ZM198.954 12.488L198.951 12.6881L198.958 12.688L198.954 12.488ZM200.194 12.464V12.264L200.19 12.264L200.194 12.464ZM201.234 12.28L201.127 12.1115V12.1115L201.234 12.28ZM201.522 7.672V7.472H201.322V7.672H201.522ZM202.17 7.672H202.37V7.472H202.17V7.672ZM201.97 11.352C201.97 11.7196 201.933 12.004 201.866 12.2127C201.799 12.4209 201.707 12.5374 201.61 12.5976L201.819 12.9384C202.025 12.8119 202.162 12.5991 202.247 12.3353C202.331 12.072 202.37 11.7417 202.37 11.352H201.97ZM201.608 12.5984C201.491 12.6716 201.304 12.7359 201.032 12.7806C200.762 12.825 200.422 12.848 200.01 12.848V13.248C200.435 13.248 200.798 13.2244 201.097 13.1754C201.392 13.1268 201.639 13.0511 201.82 12.9376L201.608 12.5984ZM200.009 12.848L198.937 12.856L198.94 13.256L200.012 13.248L200.009 12.848ZM198.941 12.856L197.413 12.832L197.407 13.232L198.935 13.256L198.941 12.856ZM197.41 12.832C196.905 12.832 196.579 12.7214 196.387 12.5419L196.114 12.8341C196.412 13.1133 196.859 13.232 197.41 13.232V12.832ZM196.39 12.545C196.206 12.3647 196.09 12.0482 196.09 11.544H195.69C195.69 12.0958 195.815 12.5419 196.11 12.831L196.39 12.545ZM196.09 11.544V7.672H195.69V11.544H196.09ZM195.89 7.872H196.538V7.472H195.89V7.872ZM196.338 7.672V11.472H196.738V7.672H196.338ZM196.338 11.472C196.338 11.9095 196.433 12.2823 196.719 12.4645L196.934 12.1275C196.835 12.0644 196.738 11.8879 196.738 11.472H196.338ZM196.722 12.4667C196.964 12.6148 197.341 12.672 197.81 12.672V12.272C197.351 12.272 197.072 12.2119 196.93 12.1253L196.722 12.4667ZM197.807 12.672L198.951 12.688L198.957 12.288L197.813 12.272L197.807 12.672ZM198.958 12.688L200.198 12.664L200.19 12.264L198.95 12.288L198.958 12.688ZM200.194 12.664C200.698 12.664 201.097 12.605 201.342 12.4485L201.127 12.1115C200.987 12.2003 200.693 12.264 200.194 12.264V12.664ZM201.342 12.4485C201.488 12.3554 201.582 12.2082 201.64 12.0352C201.697 11.8634 201.722 11.6546 201.722 11.416H201.322C201.322 11.6307 201.299 11.7926 201.26 11.9088C201.222 12.0238 201.173 12.0819 201.127 12.1115L201.342 12.4485ZM201.722 11.416V11.296H201.322V11.416H201.722ZM201.722 11.296V7.672H201.322V11.296H201.722ZM201.522 7.872H202.17V7.472H201.522V7.872ZM201.97 7.672V11.352H202.37V7.672H201.97ZM210.434 7.664L210.609 7.76102L210.774 7.464H210.434V7.664ZM207.474 13V13.2H207.592L207.649 13.097L207.474 13ZM206.586 13L206.411 13.096L206.468 13.2H206.586V13ZM203.666 7.664V7.464H203.329L203.491 7.76001L203.666 7.664ZM204.418 7.664L204.594 7.56767L204.537 7.464H204.418V7.664ZM207.034 12.424L206.859 12.5203L207.033 12.8368L207.209 12.5215L207.034 12.424ZM209.69 7.664V7.464H209.573L209.516 7.56655L209.69 7.664ZM210.259 7.56698L207.299 12.903L207.649 13.097L210.609 7.76102L210.259 7.56698ZM207.474 12.8H206.586V13.2H207.474V12.8ZM206.762 12.904L203.842 7.56799L203.491 7.76001L206.411 13.096L206.762 12.904ZM203.666 7.864H204.418V7.464H203.666V7.864ZM204.243 7.76033L206.859 12.5203L207.21 12.3277L204.594 7.56767L204.243 7.76033ZM207.209 12.5215L209.865 7.76145L209.516 7.56655L206.86 12.3265L207.209 12.5215ZM209.69 7.864H210.434V7.464H209.69V7.864Z" fill="black" mask="url(#path-17-outside-3_1_14941)"/>
<defs>
<clipPath id="clip0_1_14941">
<rect width="25" height="22" fill="white"/>
</clipPath>
</defs>
</svg>
